<?xml version="1.0" standalone="no"?>
<!DOCTYPE svg PUBLIC "-//W3C//DTD SVG 20010904//EN"
 "http://www.w3.org/TR/2001/REC-SVG-20010904/DTD/svg10.dtd">
<svg version="1.0" xmlns="http://www.w3.org/2000/svg"
 width="540.000000pt" height="360.000000pt" viewBox="0 0 540.000000 360.000000"
 preserveAspectRatio="xMidYMid meet">
<metadata>
Created by potrace 1.16, written by Peter Selinger 2001-2019
</metadata>
<g transform="translate(0.000000,360.000000) scale(0.100000,-0.100000)"
fill="#000000" stroke="none">
<path d="M4692 2952 l-192 -157 1 -290 c1 -318 3 -352 26 -334 10 9 11 14 2
19 -8 5 -13 95 -17 301 l-5 294 184 152 184 152 6 -722 c3 -397 7 -1047 8
-1445 l1 -723 33 3 c24 2 33 8 35 25 3 22 5 23 210 26 l207 2 -206 3 -206 2
-6 953 c-4 523 -7 1162 -7 1419 0 460 -3 499 -32 470 -6 -6 -7 -504 -2 -1431
6 -1216 9 -1421 21 -1421 8 0 13 -7 11 -18 -2 -9 -12 -17 -23 -17 -20 0 -20
12 -27 1255 -4 690 -9 1342 -10 1447 l-3 193 -193 -158z m247 -364 c0 -271 4
-906 7 -1410 5 -692 4 -918 -4 -918 -9 0 -12 171 -12 678 0 372 -3 1010 -7
1416 -4 520 -3 737 4 733 8 -5 11 -164 12 -499z"/>
<path d="M4702 2879 l-142 -121 0 -272 c0 -198 -3 -275 -12 -284 -7 -7 -8 -12
-3 -12 26 0 -37 -43 -82 -56 -50 -15 -56 -14 -109 6 -51 19 -164 96 -164 111
0 4 7 9 15 13 8 3 23 19 33 36 17 27 21 29 32 15 7 -8 22 -15 33 -15 19 0 19
1 3 18 -15 17 -15 23 -1 62 21 60 19 77 -15 131 -49 75 -107 86 -206 39 -63
-31 -87 -69 -90 -144 -1 -37 3 -64 10 -69 7 -6 4 -7 -8 -3 -22 7 -149 -29
-164 -47 -5 -6 -12 -36 -13 -64 -5 -62 -3 -62 99 -6 34 18 67 31 72 28 6 -4
17 -19 25 -36 9 -17 24 -29 35 -29 13 0 20 -7 20 -20 0 -14 15 -27 50 -45 72
-37 116 -79 134 -130 8 -25 13 -45 11 -45 -2 0 -18 25 -35 56 -18 30 -34 53
-36 51 -3 -2 11 -31 31 -64 25 -42 48 -106 75 -209 22 -82 39 -158 39 -169 0
-11 -6 0 -13 25 -11 41 -36 83 -98 164 l-22 29 23 -13 c38 -20 36 -3 -4 46
-32 39 -35 45 -17 40 29 -10 29 9 -3 81 -14 31 -23 63 -21 70 3 7 1 15 -4 18
-20 12 -16 -14 10 -80 15 -38 26 -72 24 -74 -2 -2 -17 9 -35 23 -17 15 -34 24
-37 22 -5 -6 0 -14 61 -88 40 -50 40 -57 -3 -33 -51 29 -47 13 11 -44 61 -61
109 -146 109 -193 0 -33 -38 -48 -120 -48 -112 0 -117 3 -142 84 -24 79 -28
158 -14 326 7 86 6 115 -8 161 -18 63 -29 76 -74 85 -46 9 -77 -26 -86 -97
-12 -99 10 -332 44 -452 16 -59 30 -127 30 -151 0 -25 7 -75 16 -113 18 -77
15 -234 -6 -363 -7 -42 -13 -172 -14 -297 l-1 -223 -1960 -2 -1960 -3 1953 -2
1952 -3 0 -39 c0 -67 11 -71 184 -71 150 0 153 0 176 25 13 14 29 25 35 25 14
0 37 48 30 61 -8 12 -13 12 100 -11 53 -11 99 -20 102 -20 3 0 -9 18 -27 39
l-31 40 6 718 c6 697 7 718 26 725 19 7 19 -6 19 -730 l0 -737 143 -136 c78
-74 148 -139 155 -143 9 -6 12 104 12 538 l0 544 -30 7 -30 7 0 89 c0 72 3 89
15 89 12 0 15 -16 15 -85 0 -69 3 -85 15 -85 13 0 15 91 13 768 -3 754 -3 757
-5 177 l-3 -591 -30 -11 c-29 -11 -30 -14 -30 -71 0 -59 -1 -61 -27 -64 -17
-2 -29 -10 -31 -20 -3 -14 3 -18 27 -18 l31 0 0 -94 0 -94 30 -6 30 -5 0 -533
0 -532 -52 49 c-29 28 -95 90 -145 140 l-93 90 0 742 0 742 -31 -13 -32 -13
-4 -728 -4 -727 22 -24 c12 -13 18 -24 13 -24 -37 0 -227 42 -258 57 l-38 18
6 260 c4 143 10 287 15 320 26 194 36 249 58 330 13 49 30 96 38 105 13 15 10
33 -41 219 -5 18 -4 22 5 16 10 -6 11 7 6 58 -4 35 -4 79 0 97 7 31 8 32 43
24 66 -14 98 -8 186 34 47 22 86 44 86 47 0 4 -5 16 -12 28 -16 31 -27 86 -18
92 4 3 11 -10 14 -28 7 -39 31 -75 42 -64 5 4 8 27 9 50 1 43 21 97 37 97 5 0
8 17 6 37 -3 41 -19 50 -64 39 -19 -5 -24 -13 -24 -40 0 -18 -7 -39 -15 -46
-9 -7 -13 -15 -10 -18 3 -3 0 -11 -6 -18 -11 -13 4 -88 23 -111 11 -14 -54
-55 -134 -83 -44 -15 -62 -17 -100 -9 -45 10 -48 13 -77 75 -16 35 -35 64 -40
64 -17 0 -13 -17 16 -73 23 -44 28 -65 28 -130 0 -64 -2 -74 -12 -60 -7 9 -13
31 -13 47 0 17 -11 54 -24 82 -24 51 -64 87 -144 128 -25 13 -32 22 -27 37 5
15 2 19 -20 19 -19 0 -31 9 -46 35 -23 38 -30 41 -62 23 -20 -10 -21 -10 -8 5
15 19 67 22 91 7 10 -6 11 -10 3 -10 -22 0 -14 -15 16 -33 16 -9 40 -16 52
-15 18 2 31 -8 55 -44 18 -26 34 -53 37 -60 2 -7 7 -10 11 -7 6 6 -5 73 -21
123 -4 15 8 9 46 -22 29 -22 74 -48 102 -57 27 -9 49 -23 49 -30 0 -7 7 -15
15 -19 9 -3 15 0 15 9 0 8 22 21 55 31 100 32 96 19 96 345 l0 284 132 112
c72 62 132 111 134 110 1 -2 4 -20 7 -41 7 -59 16 -55 16 7 0 32 -4 57 -8 57
-5 0 -72 -55 -150 -121z m-473 -349 c41 -11 51 -24 51 -65 -1 -25 -2 -27 -11
-12 -14 24 -60 21 -102 -7 -30 -21 -38 -22 -48 -10 -16 20 -24 18 -37 -11 -17
-37 -15 -44 13 -57 30 -13 32 -29 6 -52 -24 -22 -55 -14 -78 20 -15 23 -14 28
11 88 30 71 50 93 92 106 40 12 63 12 103 0z m29 -104 c6 -50 -8 -95 -40 -131
-34 -39 -46 -42 -89 -20 -28 15 -29 17 -14 38 21 30 19 46 -10 59 -19 9 -24
16 -19 32 10 34 23 41 32 17 l8 -22 39 31 c50 40 88 38 93 -4z m-256 -253 c34
-30 42 -111 28 -270 -13 -144 -13 -149 9 -238 13 -49 26 -95 28 -101 2 -6 -13
-21 -33 -34 -36 -21 -39 -21 -51 -4 -7 10 -13 26 -13 35 0 10 -5 19 -10 21
-36 12 -91 411 -74 527 12 80 64 109 116 64z m182 -633 l62 0 -13 -107 c-8
-60 -30 -182 -50 -273 -20 -91 -39 -185 -43 -210 -7 -40 -27 -271 -33 -389
l-3 -44 -69 2 c-38 1 -73 5 -77 7 -22 14 -3 428 27 604 17 94 11 211 -15 300
-5 19 -10 48 -10 65 1 24 5 18 21 -30 45 -136 61 -155 130 -155 22 0 29 5 29
20 0 11 5 20 10 20 6 0 -1 21 -16 46 -24 40 -26 50 -16 80 9 30 8 36 -9 44
-23 13 -26 35 -3 26 9 -3 44 -6 78 -6z m96 -62 c0 -29 -11 -100 -25 -158 -14
-58 -23 -115 -20 -127 3 -12 1 -75 -5 -141 -5 -66 -10 -204 -11 -306 0 -114
-5 -186 -11 -186 -33 0 -48 22 -48 71 0 66 27 313 46 414 22 122 26 158 9 95
-21 -75 -54 -322 -62 -454 -6 -106 -6 -109 18 -127 22 -17 23 -19 4 -20 -11 0
-28 -2 -37 -4 -15 -3 -18 5 -18 47 0 100 31 395 50 468 28 113 67 316 75 395
8 75 11 85 26 85 5 0 9 -24 9 -52z m-300 -1007 c0 -17 41 -23 167 -26 68 -1
127 -5 130 -8 3 -4 3 -13 0 -21 -5 -13 -31 -15 -159 -15 -90 1 -158 5 -165 11
-7 6 -13 23 -13 39 0 22 5 29 20 29 11 0 20 -4 20 -9z"/>
</g>
</svg>
