<?xml version="1.0" standalone="no"?>
<!DOCTYPE svg PUBLIC "-//W3C//DTD SVG 20010904//EN"
 "http://www.w3.org/TR/2001/REC-SVG-20010904/DTD/svg10.dtd">
<svg version="1.0" xmlns="http://www.w3.org/2000/svg"
 width="360.000000pt" height="360.000000pt" viewBox="0 0 360.000000 360.000000"
 preserveAspectRatio="xMidYMid meet">

<g transform="translate(0.000000,360.000000) scale(0.100000,-0.100000)"
fill="#000000" stroke="none">
<path d="M1767 2973 c-12 -12 -7 -60 7 -72 31 -26 73 31 46 64 -13 16 -42 20
-53 8z"/>
<path d="M1603 2840 c-82 -61 -126 -151 -127 -262 -1 -43 -3 -78 -6 -78 -4 0
-11 5 -18 12 -7 7 -12 9 -12 6 0 -14 80 -154 93 -162 24 -15 46 1 53 38 7 39
19 47 28 18 4 -10 20 -33 37 -50 17 -18 27 -32 21 -32 -6 0 -14 5 -17 10 -4 6
-10 8 -15 5 -5 -3 -12 -1 -15 5 -9 14 -35 -6 -35 -26 0 -9 13 -14 38 -15 l37
-2 -35 -7 c-19 -4 -30 -8 -24 -9 17 -2 26 -33 14 -45 -7 -7 -10 -6 -10 4 0 7
-3 10 -7 7 -3 -4 2 -17 13 -28 l19 -22 -63 6 c-76 8 -87 13 -67 34 24 23 10
28 -19 6 -46 -33 -34 -39 108 -54 181 -20 536 -1 536 28 0 3 -10 13 -21 22
-19 15 -21 23 -14 57 5 21 8 42 7 46 -1 4 5 26 13 49 23 63 18 70 -9 13 -13
-28 -29 -55 -35 -59 -6 -3 3 23 21 59 17 36 36 62 41 59 4 -3 8 1 6 8 -4 32 2
49 17 49 14 0 14 1 0 16 -9 8 -16 32 -16 52 -1 84 -67 200 -140 248 -33 22
-43 25 -53 14 -9 -10 -9 -11 0 -6 24 13 47 -43 51 -128 5 -109 -17 -211 -68
-310 -22 -43 -39 -80 -38 -81 11 -9 52 21 78 56 16 23 30 39 30 36 0 -14 -24
-57 -32 -57 -4 0 -8 -5 -8 -11 0 -29 -68 -51 -95 -31 -13 9 -44 56 -68 102 -9
19 -15 27 -12 17 6 -21 -27 -97 -33 -78 -2 6 2 18 9 27 9 11 11 48 9 127 -1
62 -2 130 -1 152 1 22 -1 50 -4 63 -5 22 -9 23 -47 17 -29 -5 -43 -3 -49 6
-21 34 8 -118 42 -225 45 -137 46 -146 19 -121 -13 12 -16 21 -10 25 12 7 -25
100 -44 112 -6 4 -11 20 -11 35 0 19 -6 29 -19 31 -15 3 -18 0 -13 -19 4 -13
7 -35 7 -48 0 -16 4 -21 14 -18 18 7 30 -34 13 -45 -16 -10 -26 10 -42 90 -20
91 -18 166 5 232 10 30 17 56 16 57 -1 2 -21 -11 -43 -27z m99 -391 c-1 -13 5
-29 14 -36 10 -7 14 -19 10 -29 -5 -14 -9 -13 -25 7 -44 57 -49 90 -13 84 11
-2 16 -10 14 -26z m-92 1 c0 -5 -4 -10 -10 -10 -5 0 -10 5 -10 10 0 6 5 10 10
10 6 0 10 -4 10 -10z m400 0 c0 -5 -4 -10 -10 -10 -5 0 -10 5 -10 10 0 6 5 10
10 10 6 0 10 -4 10 -10z m-205 -109 c-6 -5 -25 10 -25 20 0 5 6 4 14 -3 8 -7
12 -15 11 -17z m-35 0 c0 -17 -21 -24 -33 -12 -9 9 -7 10 7 5 13 -5 17 -4 12
4 -4 7 -2 12 3 12 6 0 11 -4 11 -9z m220 -46 c-11 -10 -46 -15 -132 -17 -64
-1 -120 1 -124 5 -4 4 13 7 37 7 59 0 213 12 218 16 13 11 13 2 1 -11z m-323
-21 c-3 -3 -12 -4 -19 -1 -8 3 -5 6 6 6 11 1 17 -2 13 -5z m383 -4 c0 -5 -4
-10 -10 -10 -5 0 -10 5 -10 10 0 6 5 10 10 10 6 0 10 -4 10 -10z m-330 -10 c0
-5 -4 -10 -10 -10 -5 0 -10 5 -10 10 0 6 5 10 10 10 6 0 10 -4 10 -10z m143
-18 c18 0 27 6 27 16 0 13 3 13 12 4 7 -7 21 -12 33 -12 30 -1 74 -27 55 -33
-31 -11 -217 -16 -250 -8 -29 7 -31 9 -10 10 20 1 22 3 10 11 -11 7 -1 10 35
11 28 1 42 3 32 6 -9 2 -14 9 -11 14 4 6 12 5 22 -4 10 -8 29 -15 45 -15z
m122 18 c3 -5 1 -10 -4 -10 -6 0 -11 5 -11 10 0 6 2 10 4 10 3 0 8 -4 11 -10z"/>
<path d="M1770 2838 c0 -22 4 -25 25 -20 17 3 25 11 25 24 0 16 -3 18 -13 9
-10 -8 -17 -7 -25 1 -9 9 -12 6 -12 -14z"/>
<path d="M1940 2759 c0 -8 -17 -10 -55 -5 l-55 6 -1 -102 c-1 -57 -1 -106 0
-110 0 -5 -4 -8 -9 -8 -5 0 -10 -7 -10 -15 0 -8 -7 -15 -15 -15 -8 0 -15 -4
-15 -10 0 -5 5 -10 10 -10 6 0 10 -8 11 -17 0 -10 8 -36 18 -58 l18 -40 25 50
c45 88 109 345 87 345 -5 0 -9 -5 -9 -11z"/>
<path d="M1420 2540 c0 -5 4 -10 9 -10 6 0 13 5 16 10 3 6 -1 10 -9 10 -9 0
-16 -4 -16 -10z"/>
<path d="M1474 2395 c3 -11 8 -41 12 -67 3 -27 10 -48 15 -48 16 0 9 64 -12
100 -11 19 -18 26 -15 15z"/>
<path d="M1600 2404 c0 -7 9 -22 21 -35 16 -19 18 -20 10 -4 -17 34 -31 51
-31 39z"/>
<path d="M1870 2400 c0 -5 5 -10 10 -10 6 0 10 5 10 10 0 6 -4 10 -10 10 -5 0
-10 -4 -10 -10z"/>
<path d="M1559 2075 c-55 -30 -40 -75 23 -75 16 0 31 -6 33 -12 3 -7 6 -246 7
-531 l3 -517 -33 -11 c-18 -6 -30 -15 -27 -20 4 -5 0 -9 -8 -9 -8 0 -17 -6
-20 -14 -11 -28 17 -36 130 -36 148 0 153 19 6 22 l-108 2 102 3 101 4 -22 23
c-12 14 -38 27 -57 31 l-36 7 -7 320 c-4 176 -4 418 0 539 l7 219 -45 0 c-33
0 -48 5 -52 16 -9 24 -7 31 5 12 7 -13 23 -18 53 -18 l42 0 13 -272 c8 -197 9
-313 2 -418 -6 -80 -11 -198 -11 -262 l0 -118 34 0 c18 0 39 7 46 15 7 8 19
15 26 15 10 0 14 14 15 43 l1 42 10 -42 c6 -23 18 -44 27 -47 9 -3 23 -10 31
-15 8 -5 29 -13 45 -17 l30 -7 -35 -10 c-19 -5 -43 -20 -53 -33 l-18 -24 106
0 c62 0 106 4 107 10 4 32 0 35 -45 40 l-48 5 0 273 c1 149 1 391 1 537 0 222
2 264 14 259 8 -3 17 -1 21 5 3 7 -3 12 -17 13 -13 0 -3 4 22 7 33 4 46 11 48
25 2 10 -2 22 -10 27 -7 5 -107 9 -223 8 -163 0 -216 -3 -236 -14z"/>
<path d="M455 2070 c-3 -5 -3 -15 1 -22 4 -7 3 -8 -4 -4 -7 4 -17 4 -22 1 -16
-10 7 -43 32 -47 13 -2 28 -15 36 -30 7 -14 35 -138 62 -275 116 -585 162
-799 177 -815 14 -15 33 -18 132 -16 l116 1 -102 6 c-86 5 -104 9 -117 26 -9
11 -15 27 -15 35 0 8 6 3 15 -12 19 -35 37 -39 159 -36 l100 3 32 145 c18 80
50 233 73 340 22 107 56 272 76 365 42 202 51 260 37 252 -6 -4 -14 -21 -18
-39 l-7 -33 -8 33 c-16 68 -32 53 -50 -47 -7 -36 -25 -123 -41 -193 -16 -70
-50 -228 -75 -350 -25 -122 -46 -223 -48 -225 -4 -5 -176 821 -176 849 0 13 8
18 28 19 24 2 23 2 -8 9 -34 7 -34 7 13 9 40 1 49 5 56 24 5 12 7 25 4 30 -7
11 -451 9 -458 -3z m99 -133 c10 -45 28 -120 42 -167 38 -134 71 -296 99 -478
38 -256 38 -259 -5 -77 -66 274 -80 341 -111 520 -49 286 -46 275 -79 275 -16
0 -31 3 -34 8 -2 4 13 6 33 4 l38 -4 17 -81z m563 -409 c-3 -8 -6 -5 -6 6 -1
11 2 17 5 13 3 -3 4 -12 1 -19z m-369 -558 c0 -22 -1 -22 -8 5 -4 17 -8 39 -8
50 0 16 2 15 8 -5 4 -14 8 -36 8 -50z"/>
<path d="M1095 2070 c-4 -6 6 -10 24 -10 16 0 33 5 36 10 4 6 -6 10 -24 10
-16 0 -33 -4 -36 -10z"/>
<path d="M1295 2070 c3 -5 15 -10 26 -10 10 0 19 -4 19 -10 0 -5 -11 -10 -24
-10 -14 0 -28 -4 -31 -10 -10 -16 41 -12 55 5 18 21 5 45 -25 45 -15 0 -24 -4
-20 -10z"/>
<path d="M2242 2068 c-18 -22 13 -46 68 -51 l45 -4 -48 -1 c-36 -2 -51 3 -64
18 -23 26 -35 25 -31 -2 2 -18 10 -24 40 -26 20 -2 41 -9 46 -15 8 -9 19 -938
13 -1034 -1 -7 -14 -13 -29 -13 -36 0 -85 -41 -80 -66 3 -18 17 -19 222 -22
140 -1 223 1 230 8 7 7 -59 10 -207 10 -200 0 -217 1 -217 18 0 12 3 13 8 5 6
-9 66 -13 225 -13 119 -1 221 1 227 5 5 3 10 15 10 26 0 16 -7 19 -39 19 l-40
0 -3 218 c-2 119 -2 219 -1 220 1 2 19 6 41 9 56 8 44 29 -21 39 -29 4 -46 9
-39 11 9 4 12 73 13 296 0 161 3 286 6 280 3 -9 33 -13 101 -13 114 0 139 -10
167 -65 17 -35 20 -59 19 -185 -1 -80 -8 -179 -16 -220 -14 -71 -14 -75 4 -78
31 -6 20 -22 -21 -28 -48 -8 -65 -34 -22 -34 53 0 186 32 248 60 44 20 66 37
78 60 22 43 38 198 31 297 -11 148 -46 197 -164 233 -113 34 -196 41 -497 47
-248 5 -292 3 -303 -9z m661 -89 c15 -16 27 -37 27 -47 0 -10 -10 0 -23 23
l-23 40 -129 12 -130 11 125 -5 c123 -4 125 -5 153 -34z m-540 -484 c-1 -170
-6 -313 -11 -330 -7 -21 -10 99 -10 400 1 367 3 415 12 330 6 -55 10 -235 9
-400z m574 378 c-3 -10 -5 -4 -5 12 0 17 2 24 5 18 2 -7 2 -21 0 -30z m10
-155 c-2 -24 -4 -5 -4 42 0 47 2 66 4 43 2 -24 2 -62 0 -85z m-10 -125 c-3
-10 -5 -4 -5 12 0 17 2 24 5 18 2 -7 2 -21 0 -30z m-10 -65 c-3 -8 -6 -5 -6 6
-1 11 2 17 5 13 3 -3 4 -12 1 -19z m-10 -50 c-3 -7 -5 -2 -5 12 0 14 2 19 5
13 2 -7 2 -19 0 -25z"/>
<path d="M1063 2039 c-24 -24 -3 -39 56 -38 50 1 52 2 21 9 -23 5 -27 8 -12 9
30 1 28 21 -3 21 -14 0 -25 -5 -25 -12 0 -6 -6 -4 -13 5 -9 14 -15 15 -24 6z"/>
<path d="M2978 1383 c7 -3 16 -2 19 1 4 3 -2 6 -13 5 -11 0 -14 -3 -6 -6z"/>
<path d="M2851 1369 c-84 -11 -94 -23 -11 -15 72 7 145 25 100 24 -14 0 -54
-4 -89 -9z"/>
<path d="M2648 1353 c17 -2 47 -2 65 0 17 2 3 4 -33 4 -36 0 -50 -2 -32 -4z"/>
<path d="M1800 860 c0 -6 36 -10 89 -10 50 0 93 5 96 10 4 6 -28 10 -89 10
-57 0 -96 -4 -96 -10z"/>
</g>
</svg>
