<?xml version="1.0" standalone="no"?>
<!DOCTYPE svg PUBLIC "-//W3C//DTD SVG 20010904//EN"
 "http://www.w3.org/TR/2001/REC-SVG-20010904/DTD/svg10.dtd">
<svg version="1.0" xmlns="http://www.w3.org/2000/svg"
 width="1920.000000pt" height="1920.000000pt" viewBox="0 0 1920.000000 1920.000000"
 preserveAspectRatio="xMidYMid meet">

<g transform="translate(0.000000,1920.000000) scale(0.100000,-0.100000)"
fill="#000000" stroke="none">
<path d="M8426 15426 c-145 -61 -237 -194 -238 -346 -1 -39 24 -203 61 -404
71 -387 81 -416 173 -501 234 -216 617 -66 635 249 7 100 -106 737 -143 814
-34 71 -106 142 -179 178 -52 25 -73 29 -155 32 -82 2 -103 -1 -154 -22z"/>
<path d="M10489 15431 c-99 -39 -183 -120 -223 -214 -8 -21 -25 -90 -36 -155
-12 -64 -39 -218 -61 -342 -48 -261 -49 -331 -7 -422 110 -239 415 -300 608
-121 36 33 69 75 84 108 32 66 149 696 148 795 -1 155 -100 294 -247 349 -72
27 -199 28 -266 2z"/>
<path d="M6555 14726 c-117 -30 -206 -104 -257 -212 -52 -111 -47 -249 11
-349 364 -617 379 -638 480 -689 229 -116 503 20 551 274 13 67 5 137 -24 210
-12 30 -99 184 -194 341 -190 317 -233 369 -337 408 -71 27 -167 34 -230 17z"/>
<path d="M12473 14729 c-69 -13 -129 -44 -183 -95 -39 -37 -93 -118 -227 -343
-97 -162 -185 -317 -196 -345 -14 -36 -20 -74 -20 -131 1 -108 28 -177 100
-255 150 -162 390 -170 547 -17 57 55 391 615 418 701 67 210 -70 438 -290
485 -60 12 -88 13 -149 0z"/>
<path d="M4978 13371 c-74 -24 -116 -51 -168 -107 -117 -127 -132 -319 -37
-468 43 -68 587 -507 667 -538 78 -30 203 -30 282 1 80 31 159 106 200 189 31
62 33 74 33 167 0 93 -2 105 -32 165 -40 82 -65 105 -363 345 -282 228 -332
257 -449 262 -55 2 -92 -2 -133 -16z"/>
<path d="M13993 13376 c-23 -7 -61 -24 -85 -38 -57 -32 -545 -425 -587 -474
-19 -21 -46 -63 -60 -94 -23 -48 -26 -68 -26 -155 0 -93 2 -105 33 -167 67
-137 187 -212 342 -212 136 0 155 11 482 274 361 290 383 318 383 500 0 88 -3
101 -33 162 -41 84 -120 158 -200 189 -71 27 -190 34 -249 15z"/>
<path d="M11158 12687 c-64 -27 -128 -74 -158 -118 -12 -16 -171 -307 -354
-646 -183 -340 -445 -825 -581 -1078 -246 -455 -364 -676 -557 -1035 -182
-338 -213 -392 -225 -397 -7 -3 -124 36 -260 87 -276 102 -705 262 -1158 430
-841 313 -838 312 -906 317 -82 7 -164 -15 -236 -62 -60 -40 -92 -79 -130
-160 -23 -51 -27 -72 -27 -145 1 -104 26 -177 85 -244 58 -66 100 -87 357
-183 453 -169 848 -315 1150 -427 169 -63 460 -171 647 -241 540 -201 822
-305 828 -305 4 0 90 156 317 580 37 69 190 352 340 630 713 1322 1259 2334
1306 2425 31 59 57 125 64 162 31 160 -57 331 -208 401 -83 39 -213 43 -294 9z"/>
<path d="M4010 11575 c-110 -31 -199 -107 -248 -213 -24 -50 -27 -69 -27 -162
0 -96 3 -110 29 -163 36 -71 119 -151 189 -182 79 -34 639 -215 697 -224 120
-19 251 29 338 123 69 76 95 146 96 257 1 79 -2 90 -37 161 -37 76 -98 142
-158 173 -14 8 -178 64 -365 126 -367 121 -416 131 -514 104z"/>
<path d="M15015 11584 c-52 -14 -693 -228 -715 -239 -59 -30 -120 -98 -157
-172 -34 -69 -37 -82 -37 -162 0 -111 26 -180 96 -257 87 -95 218 -142 339
-123 58 9 616 189 695 224 71 32 157 114 191 184 25 51 28 66 28 166 0 106 -1
112 -34 173 -44 80 -124 154 -199 182 -55 22 -166 34 -207 24z"/>
<path d="M4045 9565 c-262 -11 -307 -15 -355 -34 -116 -45 -190 -122 -230
-242 -77 -225 85 -475 320 -496 105 -10 709 17 770 33 108 30 195 105 248 214
23 49 27 67 27 155 0 89 -4 106 -28 156 -42 87 -98 143 -183 185 -68 34 -82
37 -172 40 -53 1 -232 -4 -397 -11z"/>
<path d="M14652 9564 c-138 -37 -233 -125 -274 -256 -61 -199 50 -415 247
-477 50 -15 119 -21 398 -31 185 -7 362 -10 393 -7 73 7 168 54 223 108 163
162 140 452 -45 580 -97 66 -116 70 -489 85 -407 16 -387 16 -453 -2z"/>
<path d="M4747 7779 c-32 -7 -492 -196 -644 -264 -74 -33 -147 -105 -186 -184
-30 -61 -32 -73 -32 -166 0 -93 2 -105 32 -166 40 -82 102 -140 191 -182 59
-27 77 -31 152 -31 95 0 90 -1 550 193 238 100 277 124 333 196 107 141 98
354 -20 485 -96 107 -238 152 -376 119z"/>
<path d="M14238 7771 c-75 -24 -118 -52 -172 -112 -65 -72 -90 -143 -91 -254
0 -81 3 -97 31 -156 39 -82 88 -137 151 -171 87 -47 652 -278 706 -289 163
-32 342 63 415 219 24 50 27 70 27 157 0 93 -2 105 -32 166 -39 79 -112 151
-186 184 -167 75 -611 256 -648 264 -65 15 -137 12 -201 -8z"/>
<path d="M6405 6766 c-104 -17 -172 -39 -265 -87 -150 -78 -248 -176 -320
-324 -50 -103 -69 -182 -77 -327 l-6 -118 265 0 265 0 5 95 c4 81 10 105 37
160 37 75 86 120 155 140 150 45 297 -12 364 -139 24 -46 27 -63 30 -181 4
-120 2 -137 -22 -209 -15 -44 -44 -109 -66 -145 -21 -36 -260 -352 -529 -701
l-491 -635 0 -212 0 -213 830 0 830 0 0 240 0 240 -483 2 -483 3 278 360 c498
643 525 680 588 807 84 170 95 223 95 453 0 156 -3 201 -18 250 -46 148 -131
278 -242 368 -77 62 -238 141 -335 162 -98 23 -302 28 -405 11z"/>
<path d="M8503 6582 c-65 -154 -224 -530 -463 -1092 -78 -184 -175 -415 -216
-512 l-74 -177 0 -235 0 -236 548 -2 547 -3 3 -227 2 -228 270 0 270 0 0 230
0 230 115 0 115 0 0 235 0 235 -115 0 -115 0 0 335 0 335 -270 0 -270 0 -2
-332 -3 -333 -272 -3 c-211 -2 -273 0 -273 10 0 11 42 112 310 743 54 127 160
376 235 555 76 179 166 391 200 473 l63 147 -271 0 -272 0 -62 -148z"/>
<path d="M11800 6495 l0 -235 555 0 c384 0 555 -3 555 -11 0 -5 -38 -112 -84
-237 -122 -328 -325 -875 -471 -1267 -70 -187 -157 -423 -195 -525 -37 -102
-82 -222 -99 -267 l-30 -83 272 0 272 0 107 293 c174 473 285 778 368 1007 43
118 150 414 239 657 l161 441 0 231 0 231 -825 0 -825 0 0 -235z"/>
<path d="M9850 6024 c0 -6 341 -593 517 -890 45 -78 83 -146 83 -152 0 -6 -21
-46 -46 -89 -60 -101 -540 -925 -572 -980 l-24 -43 269 0 268 0 175 335 c96
184 179 333 184 332 7 -2 100 -156 329 -550 l69 -117 264 0 c145 0 264 2 264
5 0 5 -62 112 -355 615 -56 96 -145 250 -199 342 l-96 166 305 508 c168 279
305 511 305 516 0 4 -119 8 -264 8 l-264 0 -159 -305 c-87 -168 -160 -305
-163 -305 -3 0 -84 136 -181 303 l-175 302 -267 3 c-147 1 -267 0 -267 -4z"/>
</g>
</svg>
