<?xml version="1.0" standalone="no"?>
<!DOCTYPE svg PUBLIC "-//W3C//DTD SVG 20010904//EN"
 "http://www.w3.org/TR/2001/REC-SVG-20010904/DTD/svg10.dtd">
<svg version="1.0" xmlns="http://www.w3.org/2000/svg"
 width="256.000000pt" height="256.000000pt" viewBox="0 0 256.000000 256.000000"
 preserveAspectRatio="xMidYMid meet">
<metadata>
Created by potrace 1.16, written by Peter Selinger 2001-2019
</metadata>
<g transform="translate(0.000000,256.000000) scale(0.100000,-0.100000)"
fill="#000000" stroke="none">
<path d="M1115 2541 c-88 -24 -632 -265 -663 -294 -53 -49 -67 -123 -34 -186
24 -48 62 -73 119 -78 42 -4 69 3 209 60 l162 64 5 -33 c8 -46 34 -82 78 -105
32 -16 59 -19 178 -19 l141 0 129 -74 c180 -102 214 -107 464 -80 56 7 57 6
57 -19 0 -53 16 -57 206 -57 102 0 183 4 195 10 18 10 19 25 19 403 0 292 -3
396 -12 405 -17 17 -379 17 -396 0 -7 -7 -12 -34 -12 -61 0 -41 -3 -48 -17
-43 -10 3 -126 31 -258 63 -217 51 -252 57 -370 60 -104 2 -144 -1 -200 -16z
m580 -144 l270 -64 3 -215 2 -215 -123 -17 c-179 -24 -198 -19 -414 105 l-102
59 -148 0 c-103 0 -153 4 -161 12 -16 16 -16 90 0 106 9 9 73 12 225 12 l213
0 0 45 0 45 -217 0 c-202 0 -221 -2 -251 -20 -63 -39 -433 -181 -453 -175 -31
10 -51 48 -40 77 8 21 58 47 293 151 358 159 389 168 543 162 66 -3 163 -21
360 -68z m595 -257 l0 -320 -115 0 -115 0 0 320 0 320 115 0 115 0 0 -320z"/>
<path d="M1023 1690 c-60 -12 -96 -33 -140 -84 -70 -79 -83 -182 -35 -274 15
-30 97 -129 192 -233 166 -183 223 -239 240 -239 32 0 401 402 436 475 60 126
-2 287 -131 341 -50 21 -139 21 -186 1 -20 -8 -55 -31 -77 -51 l-40 -37 -34
31 c-64 59 -147 85 -225 70z m72 -116 c18 -8 54 -38 79 -65 40 -43 50 -49 86
-49 36 0 46 6 82 45 49 53 96 85 128 85 66 0 139 -96 125 -167 -3 -19 -17 -52
-30 -72 -29 -44 -285 -323 -302 -328 -13 -5 -304 311 -327 355 -33 64 -10 147
53 189 40 27 61 29 106 7z"/>
<path d="M198 829 c-17 -9 -18 -39 -18 -402 0 -292 3 -396 12 -405 17 -17 379
-17 396 0 7 7 12 34 12 61 0 41 2 48 18 43 9 -3 123 -31 252 -63 233 -56 236
-57 390 -57 138 0 162 2 220 23 123 45 605 263 628 284 40 37 55 76 50 129 -6
58 -31 96 -79 120 -57 30 -98 22 -268 -46 l-159 -63 -5 33 c-8 46 -34 82 -78
105 -32 16 -59 19 -178 19 l-141 0 -129 74 c-180 102 -214 107 -463 80 -57 -7
-58 -6 -58 19 0 53 -15 57 -208 57 -102 0 -184 -5 -194 -11z m310 -406 l-3
-318 -115 0 -115 0 -3 318 -2 317 120 0 120 0 -2 -317z m482 222 c36 -18 105
-56 155 -84 l89 -53 143 4 c162 3 177 -2 177 -67 0 -67 -8 -69 -244 -66 l-210
3 0 -47 0 -46 229 3 c191 2 232 6 247 19 11 8 111 53 224 98 220 89 237 91
262 36 19 -43 -6 -61 -207 -151 -463 -208 -524 -225 -701 -193 -55 10 -507
114 -546 125 -16 5 -18 24 -18 215 0 167 3 211 14 215 32 12 226 32 271 27 28
-3 79 -20 115 -38z"/>
</g>
</svg>
