<?xml version="1.0" encoding="UTF-8" standalone="no" ?>
<!DOCTYPE svg PUBLIC "-//W3C//DTD SVG 1.1//EN" "http://www.w3.org/Graphics/SVG/1.1/DTD/svg11.dtd">
<svg xmlns="http://www.w3.org/2000/svg" xmlns:xlink="http://www.w3.org/1999/xlink" version="1.1" width="1080" height="1080" viewBox="0 0 1080 1080" xml:space="preserve">
<desc>Created with Fabric.js 5.2.4</desc>
<defs>
</defs>
<g transform="matrix(1 0 0 1 540 540)" id="1880ffc1-6cf1-4f85-911a-612dc16f4de5"  >
<rect style="stroke: none; stroke-width: 1; stroke-dasharray: none; stroke-linecap: butt; stroke-dashoffset: 0; stroke-linejoin: miter; stroke-miterlimit: 4; fill: rgb(255,255,255); fill-rule: nonzero; opacity: 1; visibility: hidden;" vector-effect="non-scaling-stroke"  x="-540" y="-540" rx="0" ry="0" width="1080" height="1080" />
</g>
<g transform="matrix(1 0 0 1 540 540)" id="9f6caa03-5ba9-4727-b2b5-23e2148e6c04"  >
</g>
<g transform="matrix(2.61 0 0 2.21 -118.89 540)"  >
<g style="" vector-effect="non-scaling-stroke"   >
		<g transform="matrix(0.13 0 0 -0.13 298.33 0)"  >
<path style="stroke: none; stroke-width: 1; stroke-dasharray: none; stroke-linecap: butt; stroke-dashoffset: 0; stroke-linejoin: miter; stroke-miterlimit: 4; fill: rgb(0,0,0); fill-rule: nonzero; opacity: 1;" vector-effect="non-scaling-stroke"  transform=" translate(-4937.5, -1654.5)" d="M 4692 2952 L 4500 2795 L 4501 2505 C 4502 2187 4504 2153 4527 2171 C 4537 2180 4538 2185 4529 2190 C 4521 2195 4516 2285 4512 2491 L 4507 2785 L 4691 2937 L 4875 3089 L 4881 2367 C 4884 1970 4888 1320 4889 922 L 4890 199 L 4923 202 C 4947 204 4956 210 4958 227 C 4961 249 4963 250 5168 253 L 5375 255 L 5169 258 L 4963 260 L 4957 1213 C 4953 1736 4950 2375 4950 2632 C 4950 3092 4947 3131 4918 3102 C 4912 3096 4911 2598 4916 1671 C 4922 455 4925 250 4937 250 C 4945 250 4950 243 4948 232 C 4946 223 4936 215 4925 215 C 4905 215 4905 227 4898 1470 C 4894 2160 4889 2812 4888 2917 L 4885 3110 L 4692 2952 z M 4939 2588 C 4939 2317 4943 1682 4946 1178 C 4951 486 4950 260 4942 260 C 4933 260 4930 431 4930 938 C 4930 1310 4927 1948 4923 2354 C 4919 2874 4920 3091 4927 3087 C 4935 3082 4938 2923 4939 2588 z" stroke-linecap="round" />
</g>
		<g transform="matrix(0.13 0 0 -0.13 -34.33 4.22)"  >
<path style="stroke: none; stroke-width: 1; stroke-dasharray: none; stroke-linecap: butt; stroke-dashoffset: 0; stroke-linejoin: miter; stroke-miterlimit: 4; fill: rgb(0,0,0); fill-rule: nonzero; opacity: 1;" vector-effect="non-scaling-stroke"  transform=" translate(-2442.5, -1622.89)" d="M 4702 2879 L 4560 2758 L 4560 2486 C 4560 2288 4557 2211 4548 2202 C 4541 2195 4540 2190 4545 2190 C 4571 2190 4508 2147 4463 2134 C 4413 2119 4407 2120 4354 2140 C 4303 2159 4190 2236 4190 2251 C 4190 2255 4197 2260 4205 2264 C 4213 2267 4228 2283 4238 2300 C 4255 2327 4259 2329 4270 2315 C 4277 2307 4292 2300 4303 2300 C 4322 2300 4322 2301 4306 2318 C 4291 2335 4291 2341 4305 2380 C 4326 2440 4324 2457 4290 2511 C 4241 2586 4183 2597 4084 2550 C 4021 2519 3997 2481 3994 2406 C 3993 2369 3997 2342 4004 2337 C 4011 2331 4008 2330 3996 2334 C 3974 2341 3847 2305 3832 2287 C 3827 2281 3820 2251 3819 2223 C 3814 2161 3816 2161 3918 2217 C 3952 2235 3985 2248 3990 2245 C 3996 2241 4007 2226 4015 2209 C 4024 2192 4039 2180 4050 2180 C 4063 2180 4070 2173 4070 2160 C 4070 2146 4085 2133 4120 2115 C 4192 2078 4236 2036 4254 1985 C 4262 1960 4267 1940 4265 1940 C 4263 1940 4247 1965 4230 1996 C 4212 2026 4196 2049 4194 2047 C 4191 2045 4205 2016 4225 1983 C 4250 1941 4273 1877 4300 1774 C 4322 1692 4339 1616 4339 1605 C 4339 1594 4333 1605 4326 1630 C 4315 1671 4290 1713 4228 1794 L 4206 1823 L 4229 1810 C 4267 1790 4265 1807 4225 1856 C 4193 1895 4190 1901 4208 1896 C 4237 1886 4237 1905 4205 1977 C 4191 2008 4182 2040 4184 2047 C 4187 2054 4185 2062 4180 2065 C 4160 2077 4164 2051 4190 1985 C 4205 1947 4216 1913 4214 1911 C 4212 1909 4197 1920 4179 1934 C 4162 1949 4145 1958 4142 1956 C 4137 1950 4142 1942 4203 1868 C 4243 1818 4243 1811 4200 1835 C 4149 1864 4153 1848 4211 1791 C 4272 1730 4320 1645 4320 1598 C 4320 1565 4282 1550 4200 1550 C 4088 1550 4083 1553 4058 1634 C 4034 1713 4030 1792 4044 1960 C 4051 2046 4050 2075 4036 2121 C 4018 2184 4007 2197 3962 2206 C 3916 2215 3885 2180 3876 2109 C 3864 2010 3886 1777 3920 1657 C 3936 1598 3950 1530 3950 1506 C 3950 1481 3957 1431 3966 1393 C 3984 1316 3981 1159 3960 1030 C 3953 988 3947 858 3946 733 L 3945 510 L 1985 508 L 25 505 L 1978 503 L 3930 500 L 3930 461 C 3930 394 3941 390 4114 390 C 4264 390 4267 390 4290 415 C 4303 429 4319 440 4325 440 C 4339 440 4362 488 4355 501 C 4347 513 4342 513 4455 490 C 4508 479 4554 470 4557 470 C 4560 470 4548 488 4530 509 L 4499 549 L 4505 1267 C 4511 1964 4512 1985 4531 1992 C 4550 1999 4550 1986 4550 1262 L 4550 525 L 4693 389 C 4771 315 4841 250 4848 246 C 4857 240 4860 350 4860 784 L 4860 1328 L 4830 1335 L 4800 1342 L 4800 1431 C 4800 1503 4803 1520 4815 1520 C 4827 1520 4830 1504 4830 1435 C 4830 1366 4833 1350 4845 1350 C 4858 1350 4860 1441 4858 2118 C 4855 2872 4855 2875 4853 2295 L 4850 1704 L 4820 1693 C 4791 1682 4790 1679 4790 1622 C 4790 1563 4789 1561 4763 1558 C 4746 1556 4734 1548 4732 1538 C 4729 1524 4735 1520 4759 1520 L 4790 1520 L 4790 1426 L 4790 1332 L 4820 1326 L 4850 1321 L 4850 788 L 4850 256 L 4798 305 C 4769 333 4703 395 4653 445 L 4560 535 L 4560 1277 L 4560 2019 L 4529 2006 L 4497 1993 L 4493 1265 L 4489 538 L 4511 514 C 4523 501 4529 490 4524 490 C 4487 490 4297 532 4266 547 L 4228 565 L 4234 825 C 4238 968 4244 1112 4249 1145 C 4275 1339 4285 1394 4307 1475 C 4320 1524 4337 1571 4345 1580 C 4358 1595 4355 1613 4304 1799 C 4299 1817 4300 1821 4309 1815 C 4319 1809 4320 1822 4315 1873 C 4311 1908 4311 1952 4315 1970 C 4322 2001 4323 2002 4358 1994 C 4424 1980 4456 1986 4544 2028 C 4591 2050 4630 2072 4630 2075 C 4630 2079 4625 2091 4618 2103 C 4602 2134 4591 2189 4600 2195 C 4604 2198 4611 2185 4614 2167 C 4621 2128 4645 2092 4656 2103 C 4661 2107 4664 2130 4665 2153 C 4666 2196 4686 2250 4702 2250 C 4707 2250 4710 2267 4708 2287 C 4705 2328 4689 2337 4644 2326 C 4625 2321 4620 2313 4620 2286 C 4620 2268 4613 2247 4605 2240 C 4596 2233 4592 2225 4595 2222 C 4598 2219 4595 2211 4589 2204 C 4578 2191 4593 2116 4612 2093 C 4623 2079 4558 2038 4478 2010 C 4434 1995 4416 1993 4378 2001 C 4333 2011 4330 2014 4301 2076 C 4285 2111 4266 2140 4261 2140 C 4244 2140 4248 2123 4277 2067 C 4300 2023 4305 2002 4305 1937 C 4305 1873 4303 1863 4293 1877 C 4286 1886 4280 1908 4280 1924 C 4280 1941 4269 1978 4256 2006 C 4232 2057 4192 2093 4112 2134 C 4087 2147 4080 2156 4085 2171 C 4090 2186 4087 2190 4065 2190 C 4046 2190 4034 2199 4019 2225 C 3996 2263 3989 2266 3957 2248 C 3937 2238 3936 2238 3949 2253 C 3964 2272 4016 2275 4040 2260 C 4050 2254 4051 2250 4043 2250 C 4021 2250 4029 2235 4059 2217 C 4075 2208 4099 2201 4111 2202 C 4129 2204 4142 2194 4166 2158 C 4184 2132 4200 2105 4203 2098 C 4205 2091 4210 2088 4214 2091 C 4220 2097 4209 2164 4193 2214 C 4189 2229 4201 2223 4239 2192 C 4268 2170 4313 2144 4341 2135 C 4368 2126 4390 2112 4390 2105 C 4390 2098 4397 2090 4405 2086 C 4414 2083 4420 2086 4420 2095 C 4420 2103 4442 2116 4475 2126 C 4575 2158 4571 2145 4571 2471 L 4571 2755 L 4703 2867 C 4775 2929 4835 2978 4837 2977 C 4838 2975 4841 2957 4844 2936 C 4851 2877 4860 2881 4860 2943 C 4860 2975 4856 3000 4852 3000 C 4847 3000 4780 2945 4702 2879 z M 4229 2530 C 4270 2519 4280 2506 4280 2465 C 4279 2440 4278 2438 4269 2453 C 4255 2477 4209 2474 4167 2446 C 4137 2425 4129 2424 4119 2436 C 4103 2456 4095 2454 4082 2425 C 4065 2388 4067 2381 4095 2368 C 4125 2355 4127 2339 4101 2316 C 4077 2294 4046 2302 4023 2336 C 4008 2359 4009 2364 4034 2424 C 4064 2495 4084 2517 4126 2530 C 4166 2542 4189 2542 4229 2530 z M 4258 2426 C 4264 2376 4250 2331 4218 2295 C 4184 2256 4172 2253 4129 2275 C 4101 2290 4100 2292 4115 2313 C 4136 2343 4134 2359 4105 2372 C 4086 2381 4081 2388 4086 2404 C 4096 2438 4109 2445 4118 2421 L 4126 2399 L 4165 2430 C 4215 2470 4253 2468 4258 2426 z M 4002 2173 C 4036 2143 4044 2062 4030 1903 C 4017 1759 4017 1754 4039 1665 C 4052 1616 4065 1570 4067 1564 C 4069 1558 4054 1543 4034 1530 C 3998 1509 3995 1509 3983 1526 C 3976 1536 3970 1552 3970 1561 C 3970 1571 3965 1580 3960 1582 C 3924 1594 3869 1993 3886 2109 C 3898 2189 3950 2218 4002 2173 z M 4184 1540 L 4246 1540 L 4233 1433 C 4225 1373 4203 1251 4183 1160 C 4163 1069 4144 975 4140 950 C 4133 910 4113 679 4107 561 L 4104 517 L 4035 519 C 3997 520 3962 524 3958 526 C 3936 540 3955 954 3985 1130 C 4002 1224 3996 1341 3970 1430 C 3965 1449 3960 1478 3960 1495 C 3961 1519 3965 1513 3981 1465 C 4026 1329 4042 1310 4111 1310 C 4133 1310 4140 1315 4140 1330 C 4140 1341 4145 1350 4150 1350 C 4156 1350 4149 1371 4134 1396 C 4110 1436 4108 1446 4118 1476 C 4127 1506 4126 1512 4109 1520 C 4086 1533 4083 1555 4106 1546 C 4115 1543 4150 1540 4184 1540 z M 4280 1478 C 4280 1449 4269 1378 4255 1320 C 4241 1262 4232 1205 4235 1193 C 4238 1181 4236 1118 4230 1052 C 4225 986 4220 848 4219 746 C 4219 632 4214 560 4208 560 C 4175 560 4160 582 4160 631 C 4160 697 4187 944 4206 1045 C 4228 1167 4232 1203 4215 1140 C 4194 1065 4161 818 4153 686 C 4147 580 4147 577 4171 559 C 4193 542 4194 540 4175 539 C 4164 539 4147 537 4138 535 C 4123 532 4120 540 4120 582 C 4120 682 4151 977 4170 1050 C 4198 1163 4237 1366 4245 1445 C 4253 1520 4256 1530 4271 1530 C 4276 1530 4280 1506 4280 1478 z M 3980 471 C 3980 454 4021 448 4147 445 C 4215 444 4274 440 4277 437 C 4280 433 4280 424 4277 416 C 4272 403 4246 401 4118 401 C 4028 402 3960 406 3953 412 C 3946 418 3940 435 3940 451 C 3940 473 3945 480 3960 480 C 3971 480 3980 476 3980 471 z" stroke-linecap="round" />
</g>
</g>
</g>
</svg>