<?xml version="1.0" standalone="no"?>
<!DOCTYPE svg PUBLIC "-//W3C//DTD SVG 20010904//EN"
 "http://www.w3.org/TR/2001/REC-SVG-20010904/DTD/svg10.dtd">
<svg version="1.0" xmlns="http://www.w3.org/2000/svg"
 width="360.000000pt" height="360.000000pt" viewBox="0 0 360.000000 360.000000"
 preserveAspectRatio="xMidYMid meet">

<g transform="translate(0.000000,360.000000) scale(0.100000,-0.100000)"
fill="#000000" stroke="none">
<path d="M1733 3283 c37 -2 97 -2 135 0 37 2 6 3 -68 3 -74 0 -105 -1 -67 -3z"/>
<path d="M1598 3273 c7 -3 16 -2 19 1 4 3 -2 6 -13 5 -11 0 -14 -3 -6 -6z"/>
<path d="M1988 3273 c7 -3 16 -2 19 1 4 3 -2 6 -13 5 -11 0 -14 -3 -6 -6z"/>
<path d="M1528 3263 c7 -3 16 -2 19 1 4 3 -2 6 -13 5 -11 0 -14 -3 -6 -6z"/>
<path d="M2058 3263 c7 -3 16 -2 19 1 4 3 -2 6 -13 5 -11 0 -14 -3 -6 -6z"/>
<path d="M1438 3243 c7 -3 16 -2 19 1 4 3 -2 6 -13 5 -11 0 -14 -3 -6 -6z"/>
<path d="M1585 3235 c-284 -45 -528 -159 -743 -345 -234 -203 -405 -502 -469
-817 -25 -124 -25 -422 0 -546 58 -287 202 -554 409 -759 273 -270 634 -418
1018 -418 663 0 1236 443 1404 1086 51 193 59 450 21 643 -60 307 -234 609
-467 811 -220 191 -483 310 -771 349 -103 14 -302 12 -402 -4z m335 -325 c370
-42 696 -265 866 -593 89 -173 124 -317 124 -517 0 -193 -33 -338 -115 -500
-32 -63 -111 -190 -118 -190 -1 0 -101 98 -221 219 l-218 218 251 129 c183 94
251 134 251 147 0 9 -3 17 -6 17 -4 0 -123 -60 -265 -132 -171 -88 -261 -130
-268 -123 -7 7 81 57 261 150 148 76 272 145 275 152 3 7 3 17 1 22 -1 5 -131
-58 -288 -139 -171 -89 -289 -145 -294 -139 -5 5 -8 10 -5 12 6 6 162 88 392
206 157 81 197 106 197 122 0 18 -37 2 -257 -112 -142 -72 -282 -145 -312
-161 -34 -19 -57 -26 -63 -20 -13 13 5 23 345 196 226 116 287 152 287 167 0
10 -2 19 -4 19 -3 0 -154 -77 -336 -171 -218 -113 -335 -168 -341 -162 -7 7
105 70 326 185 186 95 338 178 339 183 1 12 -524 374 -543 375 -7 0 -139 -65
-293 -145 -154 -80 -283 -145 -286 -145 -10 0 -492 483 -492 493 0 15 173 120
253 154 184 77 368 105 557 83z m-722 -685 c89 -88 161 -163 159 -168 -1 -4
-110 -63 -242 -131 -131 -68 -240 -127 -242 -132 -1 -5 120 -93 270 -195 l272
-187 194 100 c115 59 200 97 209 93 18 -7 -19 -29 -251 -147 l-147 -76 -276
189 c-152 104 -278 189 -280 189 -2 0 -4 -9 -4 -19 0 -14 74 -70 268 -203 147
-101 272 -187 279 -191 6 -4 104 41 224 103 117 60 218 110 226 110 38 0 -7
-29 -212 -134 l-226 -116 -277 190 c-152 105 -278 186 -280 180 -2 -6 -2 -17
1 -24 4 -10 403 -290 529 -370 l27 -18 245 126 c157 81 247 123 251 116 4 -6
5 -13 4 -14 -2 -2 -115 -60 -252 -130 l-247 -128 -115 79 c-63 43 -189 129
-280 191 -145 99 -165 110 -165 90 1 -19 51 -58 271 -208 149 -102 277 -186
284 -188 8 -2 34 8 57 21 160 91 481 248 490 239 6 -6 -48 -40 -159 -97 -92
-48 -215 -112 -271 -142 -57 -30 -110 -52 -118 -49 -8 3 -130 85 -271 182
-142 97 -264 179 -270 181 -8 3 -13 -3 -13 -13 0 -13 83 -76 278 -210 l277
-192 165 85 c91 47 222 115 292 152 l128 66 245 -245 c135 -135 245 -248 245
-251 0 -4 -21 -22 -47 -41 -190 -135 -402 -202 -643 -202 -296 0 -551 101
-763 303 -98 94 -164 181 -223 294 -89 173 -124 317 -124 517 0 239 61 440
192 634 l40 58 57 -54 c31 -30 129 -126 219 -213z m1002 90 l106 0 94 -64 c52
-35 97 -66 99 -68 3 -2 -6 -14 -18 -27 -25 -27 -30 -71 -12 -105 7 -12 11 -24
9 -25 -2 -2 -110 -58 -241 -125 -225 -116 -238 -121 -254 -105 -14 14 -15 18
-4 22 25 8 79 62 91 92 7 16 9 41 6 55 -10 40 -62 91 -118 116 -46 21 -69 24
-170 24 -86 0 -120 4 -130 14 -8 8 -9 15 -3 18 6 2 89 47 185 98 161 86 178
93 215 87 22 -3 87 -6 145 -7z m-610 -480 c96 -96 172 -176 170 -178 -3 -2
-48 -26 -100 -53 -92 -48 -96 -49 -135 -38 -49 15 -155 17 -189 5 -21 -9 -38
-1 -128 61 -57 39 -105 72 -107 74 -1 1 6 12 17 24 27 29 32 62 15 101 -7 17
-12 33 -11 34 6 5 283 144 288 144 3 1 84 -78 180 -174z m298 113 c17 -17 15
-48 -3 -48 -8 0 -15 7 -15 16 0 9 -9 18 -20 21 -11 3 -20 9 -20 14 0 13 44 11
58 -3z"/>
<path d="M2148 3243 c7 -3 16 -2 19 1 4 3 -2 6 -13 5 -11 0 -14 -3 -6 -6z"/>
<path d="M977 3045 c-20 -14 -37 -28 -37 -31 0 -2 18 8 40 22 35 23 47 34 37
34 -1 0 -19 -11 -40 -25z"/>
<path d="M2580 3067 c0 -2 19 -17 43 -32 23 -16 37 -22 30 -14 -12 15 -73 53
-73 46z"/>
<path d="M909 2993 c-13 -16 -12 -17 4 -4 9 7 17 15 17 17 0 8 -8 3 -21 -13z"/>
<path d="M2670 3006 c0 -2 8 -10 18 -17 15 -13 16 -12 3 4 -13 16 -21 21 -21
13z"/>
<path d="M869 2963 c-13 -16 -12 -17 4 -4 9 7 17 15 17 17 0 8 -8 3 -21 -13z"/>
<path d="M2710 2976 c0 -2 8 -10 18 -17 15 -13 16 -12 3 4 -13 16 -21 21 -21
13z"/>
<path d="M2840 2855 c52 -52 97 -95 100 -95 2 0 -38 43 -90 95 -52 52 -97 95
-100 95 -2 0 38 -43 90 -95z"/>
<path d="M745 2848 l-90 -93 93 90 c50 49 92 91 92 92 0 8 -12 -4 -95 -89z"/>
<path d="M629 2723 c-13 -16 -12 -17 4 -4 9 7 17 15 17 17 0 8 -8 3 -21 -13z"/>
<path d="M2950 2736 c0 -2 8 -10 18 -17 15 -13 16 -12 3 4 -13 16 -21 21 -21
13z"/>
<path d="M599 2683 c-13 -16 -12 -17 4 -4 9 7 17 15 17 17 0 8 -8 3 -21 -13z"/>
<path d="M2980 2696 c0 -2 8 -10 18 -17 15 -13 16 -12 3 4 -13 16 -21 21 -21
13z"/>
<path d="M569 2643 c-13 -16 -12 -17 4 -4 9 7 17 15 17 17 0 8 -8 3 -21 -13z"/>
<path d="M3035 2623 c15 -24 30 -43 32 -43 7 0 -31 61 -46 73 -8 7 -2 -7 14
-30z"/>
<path d="M540 2600 c-6 -11 -8 -20 -6 -20 3 0 10 9 16 20 6 11 8 20 6 20 -3 0
-10 -9 -16 -20z"/>
<path d="M510 2550 c-6 -11 -8 -20 -6 -20 3 0 10 9 16 20 6 11 8 20 6 20 -3 0
-10 -9 -16 -20z"/>
<path d="M3080 2550 c6 -11 13 -20 16 -20 2 0 0 9 -6 20 -6 11 -13 20 -16 20
-2 0 0 -9 6 -20z"/>
<path d="M351 2154 c0 -11 3 -14 6 -6 3 7 2 16 -1 19 -3 4 -6 -2 -5 -13z"/>
<path d="M3241 2154 c0 -11 3 -14 6 -6 3 7 2 16 -1 19 -3 4 -6 -2 -5 -13z"/>
<path d="M331 2064 c0 -11 3 -14 6 -6 3 7 2 16 -1 19 -3 4 -6 -2 -5 -13z"/>
<path d="M3262 2060 c0 -14 2 -19 5 -12 2 6 2 18 0 25 -3 6 -5 1 -5 -13z"/>
<path d="M321 1994 c0 -11 3 -14 6 -6 3 7 2 16 -1 19 -3 4 -6 -2 -5 -13z"/>
<path d="M3271 1994 c0 -11 3 -14 6 -6 3 7 2 16 -1 19 -3 4 -6 -2 -5 -13z"/>
<path d="M314 1800 c0 -74 1 -105 3 -67 2 37 2 97 0 135 -2 37 -3 6 -3 -68z"/>
<path d="M3284 1800 c0 -74 1 -105 3 -67 2 37 2 97 0 135 -2 37 -3 6 -3 -68z"/>
<path d="M321 1604 c0 -11 3 -14 6 -6 3 7 2 16 -1 19 -3 4 -6 -2 -5 -13z"/>
<path d="M3271 1604 c0 -11 3 -14 6 -6 3 7 2 16 -1 19 -3 4 -6 -2 -5 -13z"/>
<path d="M331 1534 c0 -11 3 -14 6 -6 3 7 2 16 -1 19 -3 4 -6 -2 -5 -13z"/>
<path d="M3261 1534 c0 -11 3 -14 6 -6 3 7 2 16 -1 19 -3 4 -6 -2 -5 -13z"/>
<path d="M351 1444 c0 -11 3 -14 6 -6 3 7 2 16 -1 19 -3 4 -6 -2 -5 -13z"/>
<path d="M3241 1444 c0 -11 3 -14 6 -6 3 7 2 16 -1 19 -3 4 -6 -2 -5 -13z"/>
<path d="M510 1050 c6 -11 13 -20 16 -20 2 0 0 9 -6 20 -6 11 -13 20 -16 20
-2 0 0 -9 6 -20z"/>
<path d="M3080 1050 c-6 -11 -8 -20 -6 -20 3 0 10 9 16 20 6 11 8 20 6 20 -3
0 -10 -9 -16 -20z"/>
<path d="M547 989 c10 -17 24 -36 32 -42 8 -7 2 7 -14 31 -32 49 -45 57 -18
11z"/>
<path d="M3035 978 c-16 -24 -22 -38 -14 -31 15 12 53 73 46 73 -2 0 -17 -19
-32 -42z"/>
<path d="M610 900 c11 -16 26 -33 32 -36 7 -4 -1 9 -16 29 -34 44 -46 50 -16
7z"/>
<path d="M2974 893 c-15 -20 -23 -33 -16 -29 13 8 56 66 49 66 -3 0 -17 -17
-33 -37z"/>
<path d="M745 750 c49 -49 92 -90 95 -90 2 0 -36 41 -85 90 -49 50 -92 90 -95
90 -2 0 36 -40 85 -90z"/>
<path d="M2840 743 l-95 -98 98 95 c90 88 102 100 94 100 -1 0 -45 -44 -97
-97z"/>
<path d="M860 646 c0 -2 8 -10 18 -17 15 -13 16 -12 3 4 -13 16 -21 21 -21 13z"/>
<path d="M2719 633 c-13 -16 -12 -17 4 -4 16 13 21 21 13 21 -2 0 -10 -8 -17
-17z"/>
<path d="M900 616 c0 -2 8 -10 18 -17 15 -13 16 -12 3 4 -13 16 -21 21 -21 13z"/>
<path d="M2679 603 c-13 -16 -12 -17 4 -4 16 13 21 21 13 21 -2 0 -10 -8 -17
-17z"/>
<path d="M947 579 c12 -15 73 -53 73 -46 0 2 -19 17 -42 32 -24 16 -38 22 -31
14z"/>
<path d="M2622 566 c-46 -33 -53 -43 -14 -20 19 10 38 25 44 32 15 17 8 14
-30 -12z"/>
<path d="M1438 353 c7 -3 16 -2 19 1 4 3 -2 6 -13 5 -11 0 -14 -3 -6 -6z"/>
<path d="M2148 353 c7 -3 16 -2 19 1 4 3 -2 6 -13 5 -11 0 -14 -3 -6 -6z"/>
<path d="M1528 333 c7 -3 16 -2 19 1 4 3 -2 6 -13 5 -11 0 -14 -3 -6 -6z"/>
<path d="M2058 333 c7 -3 16 -2 19 1 4 3 -2 6 -13 5 -11 0 -14 -3 -6 -6z"/>
<path d="M1598 323 c7 -3 16 -2 19 1 4 3 -2 6 -13 5 -11 0 -14 -3 -6 -6z"/>
<path d="M1988 323 c7 -3 16 -2 19 1 4 3 -2 6 -13 5 -11 0 -14 -3 -6 -6z"/>
<path d="M1733 313 c37 -2 97 -2 135 0 37 2 6 3 -68 3 -74 0 -105 -1 -67 -3z"/>
</g>
</svg>
