<?xml version="1.0" standalone="no"?>
<!DOCTYPE svg PUBLIC "-//W3C//DTD SVG 20010904//EN"
 "http://www.w3.org/TR/2001/REC-SVG-20010904/DTD/svg10.dtd">
<svg version="1.0" xmlns="http://www.w3.org/2000/svg"
 width="217.000000pt" height="218.000000pt" viewBox="0 0 217.000000 218.000000"
 preserveAspectRatio="xMidYMid meet">

<g transform="translate(0.000000,218.000000) scale(0.100000,-0.100000)"
fill="#000000" stroke="none">
<path d="M895 2014 c-38 -8 -82 -17 -97 -20 -15 -4 -25 -10 -22 -15 3 -5 -2
-6 -10 -3 -24 9 -176 -69 -264 -136 -84 -63 -154 -138 -215 -230 -42 -63 -43
-67 -20 -72 13 -3 30 14 56 53 77 117 190 222 312 290 33 18 61 36 63 41 2 4
10 4 18 1 8 -3 14 0 14 6 0 6 7 11 16 11 9 0 34 5 56 12 27 8 35 14 26 20 -8
5 0 8 22 8 87 -1 318 12 343 20 15 5 27 5 27 0 0 -5 -10 -11 -22 -13 -13 -2
-5 -5 18 -6 23 0 57 -7 75 -15 19 -8 45 -16 59 -18 14 -1 27 -5 30 -8 3 -3 37
-20 75 -39 139 -66 259 -171 354 -310 50 -73 111 -211 111 -251 0 -15 7 -20
28 -21 l27 -1 -30 -9 c-23 -6 -19 -7 18 -3 46 5 47 5 47 -23 0 -15 10 -48 21
-73 34 -74 35 -126 5 -201 -14 -36 -26 -77 -26 -91 0 -30 -17 -39 -68 -37
l-37 2 40 7 c34 6 29 7 -30 7 -51 1 -62 -1 -40 -7 29 -7 29 -8 -9 -9 -21 0
-140 -4 -265 -8 -455 -16 -1485 -6 -1470 14 7 7 2 36 -15 85 -14 41 -26 82
-26 91 0 9 -4 17 -10 17 -11 0 -14 33 -4 43 10 9 54 139 56 165 1 12 7 22 13
23 5 0 1 4 -10 9 -12 4 13 6 59 2 l78 -5 -12 22 c-8 16 -9 31 -1 52 5 16 6 29
1 29 -5 0 -13 -15 -20 -34 -9 -27 -16 -34 -35 -32 -29 1 -34 16 -6 16 14 0 23
11 32 38 6 20 20 53 30 74 16 32 17 37 3 42 -25 9 -31 1 -65 -90 -31 -79 -35
-85 -57 -79 -29 7 -62 -2 -62 -17 0 -6 7 -19 15 -28 13 -15 12 -24 -10 -88
-32 -92 -32 -153 1 -242 25 -67 26 -72 9 -90 -24 -26 -11 -40 38 -40 l42 0 24
-62 c54 -145 174 -305 302 -403 212 -164 501 -227 769 -169 89 19 181 54 174
66 -3 5 0 8 7 6 8 -1 30 4 49 12 l35 15 -35 5 c-41 7 -108 -18 -88 -33 9 -5 4
-7 -13 -3 -14 3 -29 3 -33 -1 -4 -4 -12 -8 -19 -9 -7 -1 -41 -9 -77 -17 -36
-9 -93 -18 -127 -22 -44 -5 -61 -11 -56 -18 5 -9 3 -9 -8 -1 -8 6 -45 15 -84
19 -211 21 -402 108 -550 251 -27 27 -53 48 -57 46 -5 -1 -8 3 -8 9 0 20 -41
69 -52 63 -6 -4 -8 -2 -4 4 3 6 -7 34 -24 62 -32 54 -80 162 -80 180 0 26 17
5 34 -42 21 -64 93 -188 107 -188 6 0 1 13 -10 29 -29 40 -105 200 -99 207 3
3 63 2 132 -2 l126 -7 46 -68 c84 -127 213 -217 364 -255 89 -23 261 -15 347
16 124 43 270 162 323 263 l23 44 131 6 c71 4 132 4 134 2 9 -9 -31 -100 -76
-177 -146 -248 -430 -408 -726 -409 -220 0 -392 60 -563 199 -32 26 -67 58
-78 72 -44 54 -64 74 -65 63 0 -22 119 -140 195 -192 92 -64 177 -103 287
-133 67 -18 109 -22 218 -22 165 1 250 21 395 94 194 97 348 268 421 465 12
31 20 43 22 32 6 -30 -84 -200 -147 -280 -61 -76 -159 -162 -241 -210 l-45
-27 41 0 c34 0 54 9 104 46 146 108 264 265 320 429 l17 49 51 -3 c46 -2 52 0
52 17 0 11 -6 25 -14 31 -13 11 -11 21 10 77 29 77 31 154 7 231 -9 29 -20 53
-23 53 -11 0 -5 39 8 52 30 30 1 53 -53 42 -29 -5 -33 -3 -39 22 -12 47 -68
174 -77 174 -5 0 -9 6 -9 13 0 38 -138 201 -230 272 -77 59 -186 118 -202 109
-7 -4 -9 -3 -5 1 12 14 -72 44 -123 45 -29 0 -40 3 -32 9 19 12 -122 30 -228
30 -47 -1 -116 -7 -155 -15z m522 -70 c-3 -3 -12 -4 -19 -1 -8 3 -5 6 6 6 11
1 17 -2 13 -5z m600 -620 c-3 -3 -12 -4 -19 -1 -8 3 -5 6 6 6 11 1 17 -2 13
-5z m-1127 -489 c151 -3 365 -2 475 3 110 4 202 7 203 6 2 -2 -11 -24 -29 -51
-71 -102 -176 -181 -299 -224 -52 -18 -87 -22 -175 -22 -123 0 -200 19 -288
74 -27 16 -50 29 -52 29 -20 0 -165 168 -165 192 0 5 12 7 28 4 15 -3 151 -8
302 -11z"/>
<path d="M900 1957 c-86 -16 -36 -18 75 -3 90 12 94 14 40 14 -33 0 -85 -5
-115 -11z"/>
<path d="M1165 1956 c44 -7 82 -12 84 -10 11 10 -11 14 -85 19 l-79 4 80 -13z"/>
<path d="M1264 1941 c3 -4 19 -11 36 -15 58 -11 165 -59 232 -103 162 -106
261 -227 340 -417 40 -98 50 -104 19 -13 -86 249 -295 453 -550 536 -71 23
-85 25 -77 12z"/>
<path d="M760 1917 c-191 -68 -381 -239 -474 -425 -29 -61 -30 -62 -16 -62 6
0 10 6 10 13 0 28 95 172 158 239 104 110 228 192 350 230 23 7 42 16 42 20 0
10 6 11 -70 -15z"/>
<path d="M1006 1904 c-11 -10 -16 -34 -16 -74 0 -52 2 -59 18 -53 9 4 22 14
29 22 10 14 12 14 18 -1 4 -10 16 -18 27 -18 16 0 19 4 14 23 -7 22 -11 50
-14 95 -2 17 -8 22 -31 22 -16 0 -37 -7 -45 -16z m44 -54 c0 -11 -4 -20 -10
-20 -5 0 -10 9 -10 20 0 11 5 20 10 20 6 0 10 -9 10 -20z"/>
<path d="M1120 1880 c0 -21 -3 -52 -6 -69 -6 -27 -4 -31 15 -31 16 0 21 6 21
26 0 14 4 23 10 19 6 -3 10 -17 10 -31 0 -20 4 -25 22 -22 22 3 28 16 42 90 5
30 4 37 -11 40 -13 3 -21 -6 -29 -27 l-11 -30 -7 31 c-5 23 -14 33 -32 37 -22
4 -24 1 -24 -33z"/>
<path d="M875 1893 c-33 -8 -35 -16 -16 -78 15 -48 23 -59 38 -57 26 5 27 7
14 42 -8 24 -8 31 1 28 7 -3 15 -15 18 -29 4 -14 14 -25 27 -27 22 -3 23 11 6
58 -3 8 -6 26 -7 40 -1 20 -6 25 -31 27 -16 0 -39 -1 -50 -4z m40 -43 c-6 -9
-9 -9 -16 1 -10 17 0 34 13 21 6 -6 7 -16 3 -22z"/>
<path d="M1255 1881 c-3 -7 2 -11 14 -11 20 0 20 0 0 -57 -10 -31 -18 -57 -17
-59 2 -1 12 -4 23 -6 15 -2 23 7 38 48 15 42 22 51 38 47 27 -7 24 16 -3 26
-46 17 -86 22 -93 12z"/>
<path d="M743 1848 c-13 -6 -23 -15 -23 -20 0 -5 5 -6 12 -2 7 4 8 3 4 -4 -4
-7 1 -36 10 -66 15 -48 20 -54 36 -45 10 5 18 17 18 25 0 12 7 14 30 9 39 -9
39 5 -1 67 -32 49 -46 55 -86 36z m57 -70 c0 -4 -4 -8 -10 -8 -5 0 -10 4 -10
9 0 5 -3 18 -6 28 -5 16 -4 16 10 -1 9 -11 16 -23 16 -28z m40 -14 c0 -8 -5
-12 -10 -9 -6 4 -8 11 -5 16 9 14 15 11 15 -7z"/>
<path d="M1361 1788 l-28 -62 31 -17 c19 -11 35 -14 41 -8 6 7 5 13 -4 18 -8
5 -11 16 -7 26 5 13 9 15 20 6 10 -9 15 -8 19 3 3 8 -1 17 -9 20 -21 8 -6 29
17 23 37 -10 29 12 -11 33 l-41 21 -28 -63z"/>
<path d="M652 1797 c-8 -9 -3 -25 20 -60 40 -62 30 -72 -13 -13 -34 49 -49 55
-69 31 -9 -11 -5 -23 26 -60 43 -50 59 -54 98 -24 32 25 32 35 0 93 -26 47
-43 56 -62 33z"/>
<path d="M1456 1743 c-20 -32 -36 -60 -36 -63 0 -9 61 -42 67 -36 3 3 0 13 -7
21 -18 22 2 44 24 26 11 -9 16 -9 22 0 4 7 2 15 -4 17 -7 2 -12 11 -12 19 0
11 7 14 25 9 35 -9 31 7 -9 38 l-35 26 -35 -57z"/>
<path d="M925 1716 c-170 -39 -307 -143 -395 -299 l-36 -62 -84 -6 c-73 -4
-77 -6 -30 -8 30 -1 339 -4 685 -5 347 -1 646 -6 665 -10 26 -6 31 -5 20 3 -8
6 -10 12 -5 13 6 1 -17 4 -49 7 l-59 6 -41 69 c-76 129 -197 229 -336 277 -82
28 -247 35 -335 15z m268 -36 c101 -20 205 -80 283 -163 38 -40 79 -91 91
-112 l21 -40 -523 0 c-520 0 -523 0 -513 20 17 32 80 120 90 123 4 2 8 10 8
18 0 8 5 14 11 14 6 0 27 14 47 31 47 41 161 95 231 109 31 7 72 15 91 19 19
4 51 4 70 0 19 -4 61 -13 93 -19z"/>
<path d="M1541 1675 c-22 -24 -41 -49 -41 -54 0 -16 71 -72 83 -64 45 26 77
58 77 77 0 19 -56 86 -72 86 -3 0 -24 -20 -47 -45z m79 -13 c0 -14 -59 -66
-67 -59 -3 4 6 21 22 37 28 30 45 38 45 22z"/>
<path d="M509 1681 c-38 -38 -37 -60 5 -93 45 -36 65 -35 103 6 l32 33 -24 23
c-24 22 -26 23 -45 5 -19 -17 -19 -18 3 -36 17 -14 18 -18 6 -19 -15 0 -69 49
-69 64 0 5 7 5 16 2 22 -9 60 24 42 36 -23 14 -39 9 -69 -21z"/>
<path d="M430 1510 c0 -5 5 -10 11 -10 5 0 7 5 4 10 -3 6 -8 10 -11 10 -2 0
-4 -4 -4 -10z"/>
<path d="M1677 1505 c-10 -7 -14 -20 -11 -32 8 -28 47 -27 60 1 9 19 7 24 -11
33 -16 7 -27 6 -38 -2z"/>
<path d="M410 1475 c0 -17 6 -22 28 -22 20 0 28 5 28 18 0 11 -10 19 -28 21
-23 4 -28 1 -28 -17z"/>
<path d="M281 1334 c0 -11 3 -14 6 -6 3 7 2 16 -1 19 -3 4 -6 -2 -5 -13z"/>
<path d="M1766 1335 c4 -8 8 -15 10 -15 2 0 4 7 4 15 0 8 -4 15 -10 15 -5 0
-7 -7 -4 -15z"/>
<path d="M308 1323 c7 -3 16 -2 19 1 4 3 -2 6 -13 5 -11 0 -14 -3 -6 -6z"/>
<path d="M727 1323 c18 -2 50 -2 70 0 21 2 7 4 -32 4 -38 0 -55 -2 -38 -4z"/>
<path d="M868 1323 c18 -2 45 -2 60 0 15 2 0 4 -33 4 -33 0 -45 -2 -27 -4z"/>
<path d="M1078 1323 c68 -2 176 -2 240 0 64 1 9 3 -123 3 -132 0 -185 -2 -117
-3z"/>
<path d="M1828 1323 c7 -3 16 -2 19 1 4 3 -2 6 -13 5 -11 0 -14 -3 -6 -6z"/>
<path d="M488 1313 c28 -2 76 -2 105 0 28 2 5 3 -53 3 -58 0 -81 -1 -52 -3z"/>
<path d="M1548 1313 c28 -2 76 -2 105 0 28 2 5 3 -53 3 -58 0 -81 -1 -52 -3z"/>
<path d="M188 1303 c12 -2 32 -2 45 0 12 2 2 4 -23 4 -25 0 -35 -2 -22 -4z"/>
<path d="M177 1262 c-10 -10 -14 -22 -10 -25 3 -4 1 -7 -5 -7 -15 0 -16 -74
-1 -103 7 -12 27 -36 45 -53 37 -34 49 -94 19 -94 -10 0 -15 11 -15 35 0 33
-2 35 -31 35 l-32 0 7 -47 c8 -58 25 -77 71 -77 43 0 64 19 71 65 9 56 -12
115 -51 145 -26 19 -35 34 -35 55 0 16 5 29 10 29 6 0 10 -11 10 -25 0 -21 5
-25 30 -25 26 0 30 3 30 29 0 43 -10 61 -32 61 -10 0 -16 5 -13 10 11 18 -51
11 -68 -8z m58 -22 c3 -5 1 -10 -4 -10 -6 0 -11 5 -11 10 0 6 2 10 4 10 3 0 8
-4 11 -10z"/>
<path d="M1074 1272 c-40 -26 -47 -142 -9 -142 8 0 16 -10 18 -22 l4 -23 2 23
c1 14 7 22 19 22 15 0 18 -6 13 -32 l-5 -33 -7 30 c-6 27 -7 28 -7 5 -1 -14 5
-34 13 -44 20 -26 20 -76 0 -76 -10 0 -15 11 -15 35 0 33 -2 35 -31 35 l-32 0
7 -47 c10 -79 71 -109 121 -58 19 18 25 34 24 67 0 43 -17 102 -18 66 -1 -9
-6 -20 -11 -23 -6 -4 -9 -1 -8 7 2 7 -3 12 -11 10 -10 -2 -12 5 -8 31 4 26 1
36 -14 45 -19 12 -28 72 -10 72 12 0 23 -29 15 -41 -3 -5 9 -9 25 -9 29 0 31
2 31 39 0 30 -6 44 -22 55 -24 17 -65 21 -84 8z"/>
<path d="M1376 1267 c-48 -35 -48 -299 0 -334 50 -37 110 3 120 80 l7 47 -37
0 c-35 0 -36 -1 -36 -40 0 -22 -4 -40 -10 -40 -6 0 -10 47 -10 120 0 69 4 120
9 120 6 0 11 -21 13 -47 3 -44 5 -48 31 -51 18 -2 29 2 33 12 10 27 -6 106
-27 127 -22 22 -67 25 -93 6z"/>
<path d="M341 1253 c0 -10 -7 -76 -15 -148 -21 -180 -22 -175 14 -175 27 0 30
3 30 30 0 19 5 30 14 30 8 0 17 -13 21 -30 6 -25 11 -30 37 -30 29 0 30 2 25
33 -3 17 -11 84 -17 147 -16 169 -13 160 -65 160 -35 0 -44 -3 -44 -17z m58
-160 c1 -28 -3 -43 -11 -43 -9 0 -12 18 -11 62 1 35 3 65 4 68 4 14 17 -51 18
-87z"/>
<path d="M490 1100 l2 -170 29 0 29 0 0 70 c0 63 2 70 20 70 22 0 26 20 8 38
-9 9 -9 12 0 12 7 0 12 5 12 10 0 6 -9 10 -20 10 -16 0 -20 7 -20 35 0 28 4
35 20 35 16 0 20 7 20 30 0 29 -1 30 -50 30 l-51 0 1 -170z"/>
<path d="M610 1109 c0 -144 2 -159 18 -160 14 0 14 -2 -3 -9 -14 -6 -2 -9 40
-8 44 0 54 2 35 8 -24 8 -24 8 -2 9 29 1 32 41 2 41 -17 0 -20 7 -20 39 0 30
4 40 20 44 15 4 20 14 20 36 0 26 -4 31 -24 31 -20 0 -23 4 -18 22 4 15 2 19
-7 14 -9 -6 -9 -3 1 13 7 12 21 21 30 21 13 0 18 8 18 30 0 29 -1 29 -55 29
l-55 -1 0 -159z"/>
<path d="M1210 1100 l0 -170 55 0 c54 0 55 0 55 29 0 23 -5 30 -22 33 -18 2
-24 10 -26 40 -3 32 0 37 20 40 18 2 24 10 26 36 3 29 1 32 -23 32 -24 0 -26
3 -23 33 2 24 8 33 26 35 17 3 22 10 22 33 0 29 -1 29 -55 29 l-55 0 0 -170z"/>
<path d="M1520 1142 c0 -70 4 -142 10 -161 18 -62 72 -80 116 -36 24 24 25 27
23 175 l-1 150 -29 0 -29 0 0 -145 c0 -90 -4 -145 -10 -145 -5 0 -10 22 -10
49 0 28 -5 51 -11 53 -9 3 -9 9 0 25 6 12 11 53 11 92 l0 71 -35 0 -35 0 0
-128z"/>
<path d="M1700 1100 l0 -170 30 0 30 0 0 76 c0 56 3 75 13 72 8 -3 13 -30 15
-76 3 -69 4 -72 27 -72 24 0 25 2 25 79 0 47 -5 83 -11 87 -8 4 -8 9 0 17 14
14 14 112 1 138 -9 15 -22 19 -70 19 l-60 0 0 -170z m85 80 c0 -18 -6 -35 -12
-37 -9 -3 -13 8 -13 37 0 29 4 40 13 38 6 -3 12 -20 12 -38z"/>
<path d="M1871 1100 l-1 -170 58 0 59 0 -5 30 c-3 21 -10 30 -23 30 -15 0 -19
7 -19 40 0 33 3 40 20 40 16 0 20 7 20 35 0 28 -4 35 -20 35 -16 0 -20 7 -20
35 0 28 4 35 20 35 16 0 20 7 20 30 0 30 -1 30 -54 30 l-55 0 0 -170z"/>
<path d="M827 1202 c-18 -20 -23 -88 -7 -112 6 -10 4 -20 -6 -31 -10 -11 -14
-32 -12 -60 l3 -44 53 -3 c28 -2 52 -7 52 -13 0 -5 13 -9 30 -9 28 0 29 1 19
27 -7 18 -6 30 1 37 5 5 10 21 10 35 0 19 -3 22 -12 13 -17 -17 -23 -15 -36
14 -8 17 -9 31 -2 44 15 28 12 72 -6 98 -19 27 -64 29 -87 4z m53 -53 c0 -17
-4 -28 -10 -24 -5 3 -10 17 -10 31 0 13 5 24 10 24 6 0 10 -14 10 -31z m3
-148 c6 -23 -21 -38 -29 -16 -8 19 3 48 15 41 5 -3 11 -14 14 -25z m64 -57
c-3 -3 -12 -4 -19 -1 -8 3 -5 6 6 6 11 1 17 -2 13 -5z"/>
<path d="M825 930 c8 -13 35 -13 55 0 11 7 5 10 -23 10 -23 0 -36 -4 -32 -10z"/>
<path d="M197 893 c24 -2 62 -2 85 0 24 2 5 4 -42 4 -47 0 -66 -2 -43 -4z"/>
<path d="M363 893 c15 -2 37 -2 50 0 12 2 0 4 -28 4 -27 0 -38 -2 -22 -4z"/>
<path d="M1708 893 c23 -2 59 -2 80 0 20 2 1 4 -43 4 -44 0 -61 -2 -37 -4z"/>
<path d="M558 883 c6 -2 18 -2 25 0 6 3 1 5 -13 5 -14 0 -19 -2 -12 -5z"/>
<path d="M698 883 c12 -2 30 -2 40 0 9 3 -1 5 -23 4 -22 0 -30 -2 -17 -4z"/>
<path d="M1443 883 c31 -2 83 -2 115 0 31 2 5 3 -58 3 -63 0 -89 -1 -57 -3z"/>
<path d="M963 873 c64 -2 170 -2 235 0 64 1 11 3 -118 3 -129 0 -182 -2 -117
-3z"/>
<path d="M420 769 c0 -5 -7 -9 -16 -9 -11 0 -14 -5 -10 -16 3 -9 6 -19 6 -24
0 -17 47 -4 57 16 8 17 5 22 -14 31 -13 6 -23 7 -23 2z"/>
<path d="M1675 765 c-16 -8 -18 -14 -11 -31 12 -27 49 -26 63 2 7 16 5 22 -11
30 -14 6 -28 6 -41 -1z"/>
<path d="M530 642 c-35 -27 -50 -42 -50 -53 0 -10 68 -79 78 -79 4 0 18 10 30
23 l22 24 -20 18 c-20 18 -21 18 -36 -3 -8 -12 -20 -20 -26 -16 -5 4 4 21 23
40 37 38 53 44 44 15 -8 -25 22 -51 36 -30 5 8 9 20 9 27 0 18 -39 54 -51 46
-6 -4 -14 -2 -18 4 -4 7 -19 1 -41 -16z"/>
<path d="M1571 651 c-1 -9 -9 -12 -27 -8 -17 3 -33 -2 -50 -17 l-23 -21 48
-52 49 -52 42 45 42 46 -23 24 c-12 13 -28 24 -35 24 -7 0 -15 6 -17 13 -4 9
-6 8 -6 -2z m-1 -50 c19 -16 32 -33 28 -37 -7 -7 -76 45 -77 59 -2 13 14 7 49
-22z"/>
<path d="M628 544 c-21 -26 -38 -50 -38 -54 0 -17 64 -61 83 -58 22 3 81 93
72 109 -13 20 -35 7 -66 -38 -18 -26 -35 -41 -37 -34 -2 7 3 20 12 30 9 10 16
21 16 25 0 4 7 14 15 23 12 12 13 18 4 29 -17 20 -20 19 -61 -32z"/>
<path d="M1421 570 l-24 -20 37 -55 c20 -30 39 -55 43 -55 3 0 21 12 40 26 35
27 37 53 2 31 -16 -10 -21 -9 -29 3 -6 9 -6 16 0 18 12 4 13 32 2 32 -4 0 -13
-5 -19 -11 -7 -7 -12 -6 -16 5 -3 8 -2 18 4 21 10 7 3 25 -9 25 -4 -1 -18 -10
-31 -20z"/>
<path d="M1347 524 c-15 -8 -27 -16 -27 -18 0 -16 52 -116 60 -116 19 0 70 30
70 41 0 7 -10 9 -24 5 -27 -7 -46 21 -21 30 8 4 12 10 9 16 -3 5 -12 7 -20 4
-18 -7 -28 12 -14 29 17 20 -1 25 -33 9z"/>
<path d="M749 478 c-51 -62 -52 -66 -28 -79 17 -8 23 -8 29 1 10 16 31 4 24
-14 -3 -8 4 -16 17 -19 29 -8 30 -7 34 44 2 24 7 53 10 65 5 15 0 23 -20 32
-14 7 -27 12 -28 12 -2 0 -19 -19 -38 -42z m45 -32 c-3 -9 -10 -16 -15 -16 -6
0 -5 9 1 21 13 24 24 20 14 -5z"/>
<path d="M1242 487 c-31 -10 -40 -35 -11 -30 9 2 20 -15 29 -50 13 -42 19 -51
35 -49 30 6 30 8 10 64 -13 37 -15 53 -7 56 19 6 14 22 -5 21 -10 -1 -33 -6
-51 -12z"/>
<path d="M855 421 c-20 -66 -20 -67 10 -73 13 -2 21 3 23 17 7 36 25 43 20 8
-4 -30 5 -43 32 -43 14 0 21 51 9 66 -7 8 -7 14 -1 14 16 0 24 33 10 46 -7 7
-29 15 -49 19 l-35 7 -19 -61z m69 14 c-4 -8 -10 -15 -15 -15 -4 0 -6 7 -3 15
4 8 10 15 15 15 4 0 6 -7 3 -15z"/>
<path d="M1169 443 l0 -28 -16 23 c-8 12 -24 22 -35 22 -18 0 -20 -5 -14 -31
3 -17 6 -47 6 -65 0 -27 4 -34 20 -34 15 0 20 7 20 28 l1 27 17 -27 c17 -29
28 -33 49 -20 17 11 -14 132 -33 132 -8 0 -14 -11 -15 -27z"/>
<path d="M986 402 c-20 -72 -20 -69 5 -75 12 -3 22 0 26 9 7 19 23 18 23 -1 0
-10 10 -15 28 -15 l29 0 -16 70 c-15 68 -17 70 -47 70 -30 0 -32 -3 -48 -58z
m50 -30 c-11 -10 -15 4 -8 28 l7 25 3 -23 c2 -13 1 -26 -2 -30z"/>
<path d="M543 3 c302 -2 792 -2 1090 0 298 1 52 2 -548 2 -600 0 -843 -1 -542
-2z"/>
</g>
</svg>
